<?xml version="1.0" encoding="UTF-8"?>
<svg xmlns="http://www.w3.org/2000/svg" viewBox="0 0 1029 770">
  <defs>
    <style>
      .cls-1 {
        fill: #d4e298;
      }

      .cls-2, .cls-3 {
        stroke: #fff;
      }

      .cls-2, .cls-3, .cls-4 {
        fill: none;
        stroke-miterlimit: 10;
      }

      .cls-5 {
        fill: #0d4347;
      }

      .cls-6 {
        font-size: 17px;
      }

      .cls-6, .cls-7, .cls-8 {
        fill: #fff;
      }

      .cls-6, .cls-9 {
        font-family: Helvetica, Helvetica;
      }

      .cls-10 {
        fill: #052605;
      }

      .cls-3 {
        stroke-width: .5px;
      }

      .cls-9 {
        fill: #789904;
        font-size: 20px;
      }

      .cls-4 {
        stroke: #789904;
        stroke-width: 4px;
      }

      .cls-8 {
        font-family: Helvetica-Light, Helvetica;
        font-size: 24px;
        font-weight: 300;
      }

      .cls-11 {
        letter-spacing: -.11em;
      }

      .cls-12 {
        letter-spacing: -.05em;
      }
    </style>
  </defs>
  <rect class="cls-5" width="1029" height="770"/>
  <g id="Layer_1" data-name="Layer 1">
    <polygon class="cls-10" points="816.68 770 810.56 763.48 801.72 755.32 795.59 744.44 792.87 734.24 790.15 724.04 781.99 715.88 758.87 700.24 758.87 690.04 747.31 670.31 739.83 666.91 739.83 658.07 730.31 652.63 726.23 641.75 716.71 630.87 699.03 613.19 691.55 605.71 686.11 598.23 674.54 581.91 657.54 571.71 639.18 558.1 630.34 549.94 623.54 544.5 620.82 531.58 607.22 517.98 601.78 508.46 588.18 501.66 580.7 490.78 561.66 473.1 548.73 473.1 543.29 463.58 522.21 454.74 522.21 447.94 507.25 437.73 488.21 437.73 471.21 418.69 444.69 398.29 420.2 385 405.24 380.61 399.23 375.39 387.17 369.13 369.09 361.94 350.32 369.13 334.55 362.87 330.61 353.83 316.01 340.61 301.63 335.05 299.47 323.63 284.75 323.63 277.4 316.27 277.4 304.83 271.67 284.39 266.77 271.3 253.69 252.5 246.33 246.78 246.33 233.69 234.88 224.7 221.8 220.61 213.62 220.61 202.18 206.71 174.38 190.36 167.02 173.19 159.66 164.2 150.67 146.21 137.59 146.21 119.6 142.12 110.61 135.58 117.97 126.59 128.59 121.68 128.59 106.15 128.59 84.07 123.28 68.54 128.59 55.46 128.59 35.02 128.59 21.12 123.69 11.31 117.97 0 1029 0 1029 770 816.68 770"/>
    <polyline class="cls-4" points="129.99 0 140.89 20.89 140.89 35.98 140.89 44.37 154.3 51.08 152.03 59.25 140.51 59.25 133.22 74.23 139.74 109.94 176.99 156.4 231.33 189.09 251.04 193.24 257.79 193.24 266.09 197.91 271.28 204.65 286.84 214.51 309.15 233.7 315.89 233.7 327.31 241.49 344.94 244.6 364.14 270.02 382.3 270.02 389.56 280.39 395.27 280.39 399.42 292.85 404.61 309.45 410.31 318.79 419.65 323.45 426.91 345.24 447.67 358.21 460.24 376.66 463.64 388.4 473.66 399.31 482.05 399.31 485.84 407.74 485.84 412.29 493.06 415.33 496.85 418.37 494.58 424.82 502.55 424.82 509.76 431.28 514.5 431.28 518.12 436.21 524.95 440.01 524.95 443.42 533.3 443.42 533.3 450.64 536.34 454.81 544.69 454.81 551.9 464.31 557.98 464.31 566.33 468.86 572.03 468.86 579.62 479.87 587.97 482.91 595.94 482.91 595.94 493.92 605.06 502.65 609.99 512.52 622.9 523.91 628.59 540.24 638.47 542.51 638.47 546.69 651.37 556.94 661.62 563.39 665.04 566.43 680.23 572.51 695.41 596.05 698.83 604.4 698.83 608.19 716.67 622.24 722.37 629.83 728.82 633.63 733 641.6 753.5 662.86 764.89 687.92 777.8 703.11 800.2 718.67 807.3 745.3 823.87 770"/>
    <circle class="cls-1" cx="258.78" cy="178.94" r="13.22"/>
    <circle class="cls-1" cx="350.78" cy="237.4" r="13.22"/>
    <circle class="cls-1" cx="407.7" cy="294.16" r="13.22"/>
    <circle class="cls-1" cx="461.08" cy="334.23" r="13.22"/>
    <circle class="cls-1" cx="474.29" cy="366.2" r="13.22"/>
    <circle class="cls-1" cx="457.33" cy="391.78" r="13.22"/>
    <circle class="cls-1" cx="596.33" cy="489.68" r="13.22"/>
    <circle class="cls-1" cx="695.46" cy="587.14" r="13.22"/>
    <circle class="cls-1" cx="333.18" cy="334.73" r="13.22"/>
    <g>
      <line class="cls-3" x1="176.85" y1="42" x2="176.85" y2="31.4"/>
      <polygon class="cls-7" points="182.1 35.65 181.16 36.53 176.85 31.89 172.53 36.53 171.59 35.65 176.85 30 182.1 35.65"/>
    </g>
    <line class="cls-2" x1="176.85" y1="30.65" x2="176.85" y2="42.65"/>
    <g>
      <g>
        <line class="cls-3" x1="840.16" y1="727.54" x2="840.16" y2="738.14"/>
        <polygon class="cls-7" points="834.91 733.88 835.85 733 840.16 737.65 844.48 733 845.42 733.88 840.16 739.53 834.91 733.88"/>
      </g>
      <line class="cls-2" x1="840.16" y1="738.88" x2="840.16" y2="726.89"/>
    </g>
  </g>
  <g id="Layer_2" data-name="Layer 2">
    <text class="cls-8" transform="translate(278.22 134.78)"><tspan x="0" y="0">Andrew Molera </tspan><tspan x="0" y="28.8">State Park</tspan></text>
    <text class="cls-9" transform="translate(176.1 94.93)"><tspan x="0" y="0">C</tspan><tspan class="cls-12" x="14.44" y="0">A</tspan><tspan x="26.69" y="0" xml:space="preserve"> Highway 1</tspan></text>
    <text class="cls-6" transform="translate(183.81 44.73)"><tspan class="cls-11" x="0" y="0">T</tspan><tspan x="8.5" y="0">o Carmel</tspan></text>
    <text class="cls-6" transform="translate(853.62 741.42)"><tspan class="cls-11" x="0" y="0">T</tspan><tspan x="8.5" y="0">o South Big Sur</tspan></text>
    <text class="cls-8" transform="translate(365.18 229.47)"><tspan x="0" y="0">The Village</tspan></text>
    <text class="cls-8" transform="translate(232.54 321.13)"><tspan x="0" y="0">Pfeiffer</tspan><tspan x="0" y="28.8">Beach</tspan></text>
    <text class="cls-8" transform="translate(423.93 278.28)"><tspan x="0" y="0">Big Sur Lodge</tspan></text>
    <text class="cls-8" transform="translate(487.51 326.3)"><tspan x="0" y="0">Ventana Campground</tspan></text>
    <text class="cls-8" transform="translate(496.43 371.49)"><tspan x="0" y="0">The Sur House</tspan></text>
    <text class="cls-8" transform="translate(333.18 415.73)"><tspan x="0" y="0">Nepenthe</tspan></text>
    <text class="cls-8" transform="translate(626.04 456.57)"><tspan x="0" y="0">Spencer &amp; </tspan><tspan x="0" y="28.8">Jenna’s View</tspan></text>
    <text class="cls-8" transform="translate(715.15 579.2)"><tspan x="0" y="0">McWay </tspan><tspan x="0" y="28.8">Falls</tspan></text>
  </g>
</svg>